# xmcd
#
# Track frame offsets:
#	150
#	20198
#	31725
#	44590
#	64163
#	75045
#	85813
#	106528
#	121170
#	139650
#	169993
#	195713
#	210605
#
# Disc length: 3073
#
# Revision: 1
# Processed by: cddbd v1.5.1PL0 Copyright (c) Steve Scherf et al.
# Submitted via: OrangeCD 4.1
# Normalized: r0:DSETVAR1,TDELIM( - )
#
DISCID=a30bff0d
DTITLE=Various Artist - Heart and Soul
DYEAR=1900
DGENRE=
TTITLE0=Roberto Cioti - Road 'N' Rail
TTITLE1=Ray Charles - Ray Charles Blues
TTITLE2=Jimmy Reed - Shame, Shame, Shame
TTITLE3=Al Jarreau - Lean On Me
TTITLE4=John Lee Hooker - No Shoes
TTITLE5=Little Richard - Lucille
TTITLE6=Gregg Smith - Lowdown
TTITLE7=Mississippi John Hurt - Candy Man
TTITLE8=Francesco Bruno (featuring Richie Havens) - World Is So Small
TTITLE9=Ed Bentley's Blue Note Quartet - Bolla
TTITLE10=George Williams - Let This Love Last Forever
TTITLE11=Percy Sledge - Warm And Tender Love
TTITLE12=Little Walter and Otis Rush - Goin' Down Slow
EXTD=
EXTT0=
EXTT1=
EXTT2=
EXTT3=
EXTT4=
EXTT5=
EXTT6=
EXTT7=
EXTT8=
EXTT9=
EXTT10=
EXTT11=
EXTT12=
PLAYORDER=
